<mxfile host="app.diagrams.net" agent="Mozilla/5.0 (Windows NT 10.0; Win64; x64) AppleWebKit/537.36 (KHTML, like Gecko) Chrome/127.0.0.0 Safari/537.36" version="24.7.5">
  <diagram name="Page-1" id="300SBUIGYk4eWtLGpb2N">
    <mxGraphModel dx="5050" dy="3360" grid="1" gridSize="10" guides="1" tooltips="1" connect="1" arrows="1" fold="1" page="1" pageScale="1" pageWidth="850" pageHeight="1100" math="0" shadow="0">
      <root>
        <mxCell id="0" />
        <mxCell id="1" parent="0" />
        <mxCell id="e-Bmt-6YXR73FlBIPhyy-1" value="AUTH" style="ellipse;whiteSpace=wrap;html=1;" vertex="1" parent="1">
          <mxGeometry x="350" y="120" width="140" height="70" as="geometry" />
        </mxCell>
        <mxCell id="e-Bmt-6YXR73FlBIPhyy-2" style="edgeStyle=orthogonalEdgeStyle;rounded=0;orthogonalLoop=1;jettySize=auto;html=1;entryX=1;entryY=0.5;entryDx=0;entryDy=0;endArrow=block;endFill=0;" edge="1" parent="1" source="e-Bmt-6YXR73FlBIPhyy-3" target="e-Bmt-6YXR73FlBIPhyy-1">
          <mxGeometry relative="1" as="geometry" />
        </mxCell>
        <mxCell id="e-Bmt-6YXR73FlBIPhyy-3" value="SIGN UP" style="ellipse;whiteSpace=wrap;html=1;" vertex="1" parent="1">
          <mxGeometry x="560" y="60" width="140" height="70" as="geometry" />
        </mxCell>
        <mxCell id="e-Bmt-6YXR73FlBIPhyy-4" style="edgeStyle=orthogonalEdgeStyle;rounded=0;orthogonalLoop=1;jettySize=auto;html=1;entryX=1;entryY=0.5;entryDx=0;entryDy=0;endArrow=block;endFill=0;" edge="1" parent="1" source="e-Bmt-6YXR73FlBIPhyy-5" target="e-Bmt-6YXR73FlBIPhyy-1">
          <mxGeometry relative="1" as="geometry" />
        </mxCell>
        <mxCell id="e-Bmt-6YXR73FlBIPhyy-5" value="SIGN IN" style="ellipse;whiteSpace=wrap;html=1;" vertex="1" parent="1">
          <mxGeometry x="560" y="170" width="140" height="70" as="geometry" />
        </mxCell>
        <mxCell id="e-Bmt-6YXR73FlBIPhyy-6" style="edgeStyle=orthogonalEdgeStyle;rounded=0;orthogonalLoop=1;jettySize=auto;html=1;entryX=1;entryY=0.5;entryDx=0;entryDy=0;endArrow=block;endFill=0;" edge="1" parent="1" source="e-Bmt-6YXR73FlBIPhyy-7" target="e-Bmt-6YXR73FlBIPhyy-1">
          <mxGeometry relative="1" as="geometry" />
        </mxCell>
        <mxCell id="e-Bmt-6YXR73FlBIPhyy-7" value="SIGN OUT" style="ellipse;whiteSpace=wrap;html=1;" vertex="1" parent="1">
          <mxGeometry x="740" y="120" width="140" height="70" as="geometry" />
        </mxCell>
        <mxCell id="e-Bmt-6YXR73FlBIPhyy-8" style="edgeStyle=orthogonalEdgeStyle;rounded=0;orthogonalLoop=1;jettySize=auto;html=1;entryX=0;entryY=0.5;entryDx=0;entryDy=0;" edge="1" parent="1" source="e-Bmt-6YXR73FlBIPhyy-10" target="e-Bmt-6YXR73FlBIPhyy-1">
          <mxGeometry relative="1" as="geometry" />
        </mxCell>
        <mxCell id="e-Bmt-6YXR73FlBIPhyy-9" value="include" style="edgeLabel;html=1;align=center;verticalAlign=middle;resizable=0;points=[];" vertex="1" connectable="0" parent="e-Bmt-6YXR73FlBIPhyy-8">
          <mxGeometry x="-0.0916" y="2" relative="1" as="geometry">
            <mxPoint as="offset" />
          </mxGeometry>
        </mxCell>
        <mxCell id="e-Bmt-6YXR73FlBIPhyy-10" value="USERS" style="ellipse;whiteSpace=wrap;html=1;" vertex="1" parent="1">
          <mxGeometry x="-70" y="80" width="140" height="70" as="geometry" />
        </mxCell>
        <mxCell id="e-Bmt-6YXR73FlBIPhyy-11" style="edgeStyle=orthogonalEdgeStyle;rounded=0;orthogonalLoop=1;jettySize=auto;html=1;entryX=0;entryY=0.5;entryDx=0;entryDy=0;endArrow=block;endFill=0;" edge="1" parent="1" source="e-Bmt-6YXR73FlBIPhyy-12" target="e-Bmt-6YXR73FlBIPhyy-10">
          <mxGeometry relative="1" as="geometry" />
        </mxCell>
        <mxCell id="e-Bmt-6YXR73FlBIPhyy-12" value="CUSTOMERS" style="ellipse;whiteSpace=wrap;html=1;" vertex="1" parent="1">
          <mxGeometry x="-240" y="40" width="140" height="70" as="geometry" />
        </mxCell>
        <mxCell id="e-Bmt-6YXR73FlBIPhyy-13" style="edgeStyle=orthogonalEdgeStyle;rounded=0;orthogonalLoop=1;jettySize=auto;html=1;entryX=0;entryY=0.5;entryDx=0;entryDy=0;endArrow=block;endFill=0;" edge="1" parent="1" source="e-Bmt-6YXR73FlBIPhyy-14" target="e-Bmt-6YXR73FlBIPhyy-10">
          <mxGeometry relative="1" as="geometry" />
        </mxCell>
        <mxCell id="e-Bmt-6YXR73FlBIPhyy-14" value="ADMINS" style="ellipse;whiteSpace=wrap;html=1;" vertex="1" parent="1">
          <mxGeometry x="-240" y="120" width="140" height="70" as="geometry" />
        </mxCell>
        <mxCell id="e-Bmt-6YXR73FlBIPhyy-15" style="edgeStyle=orthogonalEdgeStyle;rounded=0;orthogonalLoop=1;jettySize=auto;html=1;entryX=0.5;entryY=1;entryDx=0;entryDy=0;" edge="1" parent="1" source="e-Bmt-6YXR73FlBIPhyy-21" target="e-Bmt-6YXR73FlBIPhyy-10">
          <mxGeometry relative="1" as="geometry" />
        </mxCell>
        <mxCell id="e-Bmt-6YXR73FlBIPhyy-16" value="include" style="edgeLabel;html=1;align=center;verticalAlign=middle;resizable=0;points=[];" vertex="1" connectable="0" parent="e-Bmt-6YXR73FlBIPhyy-15">
          <mxGeometry x="-0.0789" y="1" relative="1" as="geometry">
            <mxPoint as="offset" />
          </mxGeometry>
        </mxCell>
        <mxCell id="e-Bmt-6YXR73FlBIPhyy-17" style="edgeStyle=orthogonalEdgeStyle;rounded=0;orthogonalLoop=1;jettySize=auto;html=1;" edge="1" parent="1" source="e-Bmt-6YXR73FlBIPhyy-21" target="e-Bmt-6YXR73FlBIPhyy-36">
          <mxGeometry relative="1" as="geometry" />
        </mxCell>
        <mxCell id="e-Bmt-6YXR73FlBIPhyy-18" value="include" style="edgeLabel;html=1;align=center;verticalAlign=middle;resizable=0;points=[];" vertex="1" connectable="0" parent="e-Bmt-6YXR73FlBIPhyy-17">
          <mxGeometry x="0.1468" relative="1" as="geometry">
            <mxPoint x="-10" as="offset" />
          </mxGeometry>
        </mxCell>
        <mxCell id="e-Bmt-6YXR73FlBIPhyy-19" style="edgeStyle=orthogonalEdgeStyle;rounded=0;orthogonalLoop=1;jettySize=auto;html=1;entryX=0.5;entryY=0;entryDx=0;entryDy=0;" edge="1" parent="1" source="e-Bmt-6YXR73FlBIPhyy-21" target="e-Bmt-6YXR73FlBIPhyy-43">
          <mxGeometry relative="1" as="geometry" />
        </mxCell>
        <mxCell id="e-Bmt-6YXR73FlBIPhyy-20" value="INCLUDE" style="edgeLabel;html=1;align=center;verticalAlign=middle;resizable=0;points=[];" vertex="1" connectable="0" parent="e-Bmt-6YXR73FlBIPhyy-19">
          <mxGeometry x="-0.0498" y="2" relative="1" as="geometry">
            <mxPoint as="offset" />
          </mxGeometry>
        </mxCell>
        <mxCell id="e-Bmt-6YXR73FlBIPhyy-21" value="ORDERS" style="ellipse;whiteSpace=wrap;html=1;" vertex="1" parent="1">
          <mxGeometry x="-30" y="280" width="140" height="70" as="geometry" />
        </mxCell>
        <mxCell id="e-Bmt-6YXR73FlBIPhyy-22" style="edgeStyle=orthogonalEdgeStyle;rounded=0;orthogonalLoop=1;jettySize=auto;html=1;entryX=0;entryY=0.5;entryDx=0;entryDy=0;endArrow=block;endFill=0;" edge="1" parent="1" source="e-Bmt-6YXR73FlBIPhyy-23" target="e-Bmt-6YXR73FlBIPhyy-21">
          <mxGeometry relative="1" as="geometry" />
        </mxCell>
        <mxCell id="e-Bmt-6YXR73FlBIPhyy-23" value="LIST" style="ellipse;whiteSpace=wrap;html=1;" vertex="1" parent="1">
          <mxGeometry x="-220" y="280" width="140" height="70" as="geometry" />
        </mxCell>
        <mxCell id="e-Bmt-6YXR73FlBIPhyy-24" style="edgeStyle=orthogonalEdgeStyle;rounded=0;orthogonalLoop=1;jettySize=auto;html=1;entryX=0;entryY=0.5;entryDx=0;entryDy=0;endArrow=block;endFill=0;" edge="1" parent="1" source="e-Bmt-6YXR73FlBIPhyy-25" target="e-Bmt-6YXR73FlBIPhyy-21">
          <mxGeometry relative="1" as="geometry" />
        </mxCell>
        <mxCell id="e-Bmt-6YXR73FlBIPhyy-25" value="CREATE" style="ellipse;whiteSpace=wrap;html=1;" vertex="1" parent="1">
          <mxGeometry x="-220" y="360" width="140" height="70" as="geometry" />
        </mxCell>
        <mxCell id="e-Bmt-6YXR73FlBIPhyy-26" style="edgeStyle=orthogonalEdgeStyle;rounded=0;orthogonalLoop=1;jettySize=auto;html=1;entryX=0;entryY=0.5;entryDx=0;entryDy=0;endArrow=block;endFill=0;" edge="1" parent="1" source="e-Bmt-6YXR73FlBIPhyy-27" target="e-Bmt-6YXR73FlBIPhyy-21">
          <mxGeometry relative="1" as="geometry" />
        </mxCell>
        <mxCell id="e-Bmt-6YXR73FlBIPhyy-27" value="UPDATE" style="ellipse;whiteSpace=wrap;html=1;" vertex="1" parent="1">
          <mxGeometry x="-220" y="440" width="140" height="70" as="geometry" />
        </mxCell>
        <mxCell id="e-Bmt-6YXR73FlBIPhyy-28" style="edgeStyle=orthogonalEdgeStyle;rounded=0;orthogonalLoop=1;jettySize=auto;html=1;entryX=0;entryY=0.5;entryDx=0;entryDy=0;endArrow=block;endFill=0;" edge="1" parent="1" source="e-Bmt-6YXR73FlBIPhyy-29" target="e-Bmt-6YXR73FlBIPhyy-21">
          <mxGeometry relative="1" as="geometry" />
        </mxCell>
        <mxCell id="e-Bmt-6YXR73FlBIPhyy-29" value="ARCHIVE" style="ellipse;whiteSpace=wrap;html=1;fillColor=#b2aeae;" vertex="1" parent="1">
          <mxGeometry x="-220" y="520" width="140" height="70" as="geometry" />
        </mxCell>
        <mxCell id="e-Bmt-6YXR73FlBIPhyy-30" style="edgeStyle=orthogonalEdgeStyle;rounded=0;orthogonalLoop=1;jettySize=auto;html=1;entryX=0;entryY=0.5;entryDx=0;entryDy=0;endArrow=block;endFill=0;" edge="1" parent="1" source="e-Bmt-6YXR73FlBIPhyy-31" target="e-Bmt-6YXR73FlBIPhyy-21">
          <mxGeometry relative="1" as="geometry" />
        </mxCell>
        <mxCell id="e-Bmt-6YXR73FlBIPhyy-31" value="DELETE" style="ellipse;whiteSpace=wrap;html=1;" vertex="1" parent="1">
          <mxGeometry x="-220" y="600" width="140" height="70" as="geometry" />
        </mxCell>
        <mxCell id="e-Bmt-6YXR73FlBIPhyy-32" style="edgeStyle=orthogonalEdgeStyle;rounded=0;orthogonalLoop=1;jettySize=auto;html=1;entryX=0.5;entryY=0;entryDx=0;entryDy=0;" edge="1" parent="1" source="e-Bmt-6YXR73FlBIPhyy-36" target="e-Bmt-6YXR73FlBIPhyy-37">
          <mxGeometry relative="1" as="geometry" />
        </mxCell>
        <mxCell id="e-Bmt-6YXR73FlBIPhyy-33" value="include" style="edgeLabel;html=1;align=center;verticalAlign=middle;resizable=0;points=[];" vertex="1" connectable="0" parent="e-Bmt-6YXR73FlBIPhyy-32">
          <mxGeometry x="-0.32" y="-1" relative="1" as="geometry">
            <mxPoint x="1" y="3" as="offset" />
          </mxGeometry>
        </mxCell>
        <mxCell id="e-Bmt-6YXR73FlBIPhyy-34" style="edgeStyle=orthogonalEdgeStyle;rounded=0;orthogonalLoop=1;jettySize=auto;html=1;entryX=0;entryY=0.5;entryDx=0;entryDy=0;" edge="1" parent="1" source="e-Bmt-6YXR73FlBIPhyy-36" target="e-Bmt-6YXR73FlBIPhyy-38">
          <mxGeometry relative="1" as="geometry" />
        </mxCell>
        <mxCell id="e-Bmt-6YXR73FlBIPhyy-35" value="include" style="edgeLabel;html=1;align=center;verticalAlign=middle;resizable=0;points=[];" vertex="1" connectable="0" parent="e-Bmt-6YXR73FlBIPhyy-34">
          <mxGeometry x="-0.1" y="-1" relative="1" as="geometry">
            <mxPoint as="offset" />
          </mxGeometry>
        </mxCell>
        <mxCell id="e-Bmt-6YXR73FlBIPhyy-36" value="PRODUCTS" style="ellipse;whiteSpace=wrap;html=1;" vertex="1" parent="1">
          <mxGeometry x="250" y="280" width="140" height="70" as="geometry" />
        </mxCell>
        <mxCell id="e-Bmt-6YXR73FlBIPhyy-37" value="UNITS" style="ellipse;whiteSpace=wrap;html=1;" vertex="1" parent="1">
          <mxGeometry x="250" y="400" width="140" height="70" as="geometry" />
        </mxCell>
        <mxCell id="e-Bmt-6YXR73FlBIPhyy-38" value="STOCK" style="ellipse;whiteSpace=wrap;html=1;" vertex="1" parent="1">
          <mxGeometry x="450" y="280" width="140" height="70" as="geometry" />
        </mxCell>
        <mxCell id="e-Bmt-6YXR73FlBIPhyy-39" value="INFO" style="ellipse;whiteSpace=wrap;html=1;" vertex="1" parent="1">
          <mxGeometry x="-30" y="-60" width="140" height="70" as="geometry" />
        </mxCell>
        <mxCell id="e-Bmt-6YXR73FlBIPhyy-40" style="edgeStyle=orthogonalEdgeStyle;rounded=0;orthogonalLoop=1;jettySize=auto;html=1;entryX=0;entryY=0.5;entryDx=0;entryDy=0;endArrow=block;endFill=0;" edge="1" parent="1" source="e-Bmt-6YXR73FlBIPhyy-41" target="e-Bmt-6YXR73FlBIPhyy-39">
          <mxGeometry relative="1" as="geometry" />
        </mxCell>
        <mxCell id="e-Bmt-6YXR73FlBIPhyy-41" value="About us" style="ellipse;whiteSpace=wrap;html=1;" vertex="1" parent="1">
          <mxGeometry x="-210" y="-120" width="140" height="70" as="geometry" />
        </mxCell>
        <mxCell id="e-Bmt-6YXR73FlBIPhyy-42" value="CONTACT" style="ellipse;whiteSpace=wrap;html=1;" vertex="1" parent="1">
          <mxGeometry x="200" y="-60" width="140" height="70" as="geometry" />
        </mxCell>
        <mxCell id="e-Bmt-6YXR73FlBIPhyy-43" value="CART" style="ellipse;whiteSpace=wrap;html=1;" vertex="1" parent="1">
          <mxGeometry x="-30" y="440" width="140" height="70" as="geometry" />
        </mxCell>
        <mxCell id="e-Bmt-6YXR73FlBIPhyy-44" style="edgeStyle=orthogonalEdgeStyle;rounded=0;orthogonalLoop=1;jettySize=auto;html=1;entryX=0.5;entryY=0;entryDx=0;entryDy=0;" edge="1" parent="1" source="e-Bmt-6YXR73FlBIPhyy-46" target="e-Bmt-6YXR73FlBIPhyy-10">
          <mxGeometry relative="1" as="geometry" />
        </mxCell>
        <mxCell id="e-Bmt-6YXR73FlBIPhyy-45" value="include" style="edgeLabel;html=1;align=center;verticalAlign=middle;resizable=0;points=[];" vertex="1" connectable="0" parent="e-Bmt-6YXR73FlBIPhyy-44">
          <mxGeometry x="0.1421" y="1" relative="1" as="geometry">
            <mxPoint x="6" as="offset" />
          </mxGeometry>
        </mxCell>
        <mxCell id="e-Bmt-6YXR73FlBIPhyy-46" value="NOTIFICATIONS" style="ellipse;whiteSpace=wrap;html=1;" vertex="1" parent="1">
          <mxGeometry x="80" y="10" width="140" height="70" as="geometry" />
        </mxCell>
        <mxCell id="e-Bmt-6YXR73FlBIPhyy-47" style="edgeStyle=orthogonalEdgeStyle;rounded=0;orthogonalLoop=1;jettySize=auto;html=1;entryX=0;entryY=0.5;entryDx=0;entryDy=0;" edge="1" parent="1" source="e-Bmt-6YXR73FlBIPhyy-49" target="e-Bmt-6YXR73FlBIPhyy-36">
          <mxGeometry relative="1" as="geometry" />
        </mxCell>
        <mxCell id="e-Bmt-6YXR73FlBIPhyy-48" value="include" style="edgeLabel;html=1;align=center;verticalAlign=middle;resizable=0;points=[];" vertex="1" connectable="0" parent="e-Bmt-6YXR73FlBIPhyy-47">
          <mxGeometry x="-0.2646" y="-1" relative="1" as="geometry">
            <mxPoint as="offset" />
          </mxGeometry>
        </mxCell>
        <mxCell id="e-Bmt-6YXR73FlBIPhyy-49" value="WISHES" style="ellipse;whiteSpace=wrap;html=1;" vertex="1" parent="1">
          <mxGeometry x="-30" y="540" width="140" height="70" as="geometry" />
        </mxCell>
        <mxCell id="e-Bmt-6YXR73FlBIPhyy-50" style="edgeStyle=orthogonalEdgeStyle;rounded=0;orthogonalLoop=1;jettySize=auto;html=1;entryX=0.5;entryY=0;entryDx=0;entryDy=0;" edge="1" parent="1" source="e-Bmt-6YXR73FlBIPhyy-51" target="e-Bmt-6YXR73FlBIPhyy-21">
          <mxGeometry relative="1" as="geometry" />
        </mxCell>
        <mxCell id="e-Bmt-6YXR73FlBIPhyy-51" value="PAYMENT OPTIONS" style="ellipse;whiteSpace=wrap;html=1;" vertex="1" parent="1">
          <mxGeometry x="120" y="210" width="140" height="70" as="geometry" />
        </mxCell>
        <mxCell id="e-Bmt-6YXR73FlBIPhyy-52" style="edgeStyle=orthogonalEdgeStyle;rounded=0;orthogonalLoop=1;jettySize=auto;html=1;entryX=0.5;entryY=1;entryDx=0;entryDy=0;" edge="1" parent="1" source="e-Bmt-6YXR73FlBIPhyy-56" target="e-Bmt-6YXR73FlBIPhyy-10">
          <mxGeometry relative="1" as="geometry" />
        </mxCell>
        <mxCell id="e-Bmt-6YXR73FlBIPhyy-53" value="include" style="edgeLabel;html=1;align=center;verticalAlign=middle;resizable=0;points=[];" vertex="1" connectable="0" parent="e-Bmt-6YXR73FlBIPhyy-52">
          <mxGeometry x="-0.6028" y="-1" relative="1" as="geometry">
            <mxPoint as="offset" />
          </mxGeometry>
        </mxCell>
        <mxCell id="e-Bmt-6YXR73FlBIPhyy-54" style="edgeStyle=orthogonalEdgeStyle;rounded=0;orthogonalLoop=1;jettySize=auto;html=1;entryX=0;entryY=0.5;entryDx=0;entryDy=0;" edge="1" parent="1" source="e-Bmt-6YXR73FlBIPhyy-56" target="e-Bmt-6YXR73FlBIPhyy-21">
          <mxGeometry relative="1" as="geometry" />
        </mxCell>
        <mxCell id="e-Bmt-6YXR73FlBIPhyy-55" value="include" style="edgeLabel;html=1;align=center;verticalAlign=middle;resizable=0;points=[];" vertex="1" connectable="0" parent="e-Bmt-6YXR73FlBIPhyy-54">
          <mxGeometry x="-0.6392" y="-2" relative="1" as="geometry">
            <mxPoint as="offset" />
          </mxGeometry>
        </mxCell>
        <mxCell id="e-Bmt-6YXR73FlBIPhyy-56" value="SHIPPING INFO" style="ellipse;whiteSpace=wrap;html=1;" vertex="1" parent="1">
          <mxGeometry x="-140" y="200" width="140" height="70" as="geometry" />
        </mxCell>
        <mxCell id="e-Bmt-6YXR73FlBIPhyy-57" style="edgeStyle=orthogonalEdgeStyle;rounded=0;orthogonalLoop=1;jettySize=auto;html=1;entryX=0.5;entryY=0;entryDx=0;entryDy=0;" edge="1" parent="1" source="e-Bmt-6YXR73FlBIPhyy-58" target="e-Bmt-6YXR73FlBIPhyy-21">
          <mxGeometry relative="1" as="geometry" />
        </mxCell>
        <mxCell id="e-Bmt-6YXR73FlBIPhyy-58" value="SHIPPING OPTIONS" style="ellipse;whiteSpace=wrap;html=1;" vertex="1" parent="1">
          <mxGeometry x="30" y="140" width="140" height="70" as="geometry" />
        </mxCell>
        <mxCell id="e-Bmt-6YXR73FlBIPhyy-59" value="WAREHOUSE" style="ellipse;whiteSpace=wrap;html=1;" vertex="1" parent="1">
          <mxGeometry x="460" y="400" width="140" height="70" as="geometry" />
        </mxCell>
        <mxCell id="e-Bmt-6YXR73FlBIPhyy-60" value="USER" style="swimlane;fontStyle=1;align=center;verticalAlign=middle;childLayout=stackLayout;horizontal=1;startSize=29;horizontalStack=0;resizeParent=1;resizeParentMax=0;resizeLast=0;collapsible=0;marginBottom=0;html=1;whiteSpace=wrap;" vertex="1" parent="1">
          <mxGeometry x="1740" y="-280" width="140" height="159" as="geometry" />
        </mxCell>
        <mxCell id="e-Bmt-6YXR73FlBIPhyy-61" value="id" style="text;html=1;strokeColor=none;fillColor=none;align=left;verticalAlign=middle;spacingLeft=4;spacingRight=4;overflow=hidden;rotatable=0;points=[[0,0.5],[1,0.5]];portConstraint=eastwest;whiteSpace=wrap;" vertex="1" parent="e-Bmt-6YXR73FlBIPhyy-60">
          <mxGeometry y="29" width="140" height="26" as="geometry" />
        </mxCell>
        <mxCell id="e-Bmt-6YXR73FlBIPhyy-62" value="name" style="text;html=1;strokeColor=none;fillColor=none;align=left;verticalAlign=middle;spacingLeft=4;spacingRight=4;overflow=hidden;rotatable=0;points=[[0,0.5],[1,0.5]];portConstraint=eastwest;whiteSpace=wrap;" vertex="1" parent="e-Bmt-6YXR73FlBIPhyy-60">
          <mxGeometry y="55" width="140" height="26" as="geometry" />
        </mxCell>
        <mxCell id="e-Bmt-6YXR73FlBIPhyy-63" value="createdAt" style="text;html=1;strokeColor=none;fillColor=none;align=left;verticalAlign=middle;spacingLeft=4;spacingRight=4;overflow=hidden;rotatable=0;points=[[0,0.5],[1,0.5]];portConstraint=eastwest;whiteSpace=wrap;" vertex="1" parent="e-Bmt-6YXR73FlBIPhyy-60">
          <mxGeometry y="81" width="140" height="26" as="geometry" />
        </mxCell>
        <mxCell id="e-Bmt-6YXR73FlBIPhyy-64" value="email" style="text;html=1;strokeColor=none;fillColor=none;align=left;verticalAlign=middle;spacingLeft=4;spacingRight=4;overflow=hidden;rotatable=0;points=[[0,0.5],[1,0.5]];portConstraint=eastwest;whiteSpace=wrap;" vertex="1" parent="e-Bmt-6YXR73FlBIPhyy-60">
          <mxGeometry y="107" width="140" height="26" as="geometry" />
        </mxCell>
        <mxCell id="e-Bmt-6YXR73FlBIPhyy-65" value="roleId" style="text;html=1;strokeColor=none;fillColor=none;align=left;verticalAlign=middle;spacingLeft=4;spacingRight=4;overflow=hidden;rotatable=0;points=[[0,0.5],[1,0.5]];portConstraint=eastwest;whiteSpace=wrap;" vertex="1" parent="e-Bmt-6YXR73FlBIPhyy-60">
          <mxGeometry y="133" width="140" height="26" as="geometry" />
        </mxCell>
        <mxCell id="e-Bmt-6YXR73FlBIPhyy-66" value="ROLE" style="swimlane;fontStyle=1;align=center;verticalAlign=middle;childLayout=stackLayout;horizontal=1;startSize=29;horizontalStack=0;resizeParent=1;resizeParentMax=0;resizeLast=0;collapsible=0;marginBottom=0;html=1;whiteSpace=wrap;" vertex="1" parent="1">
          <mxGeometry x="1560" y="-280" width="140" height="81" as="geometry" />
        </mxCell>
        <mxCell id="e-Bmt-6YXR73FlBIPhyy-67" value="id" style="text;html=1;strokeColor=none;fillColor=none;align=left;verticalAlign=middle;spacingLeft=4;spacingRight=4;overflow=hidden;rotatable=0;points=[[0,0.5],[1,0.5]];portConstraint=eastwest;whiteSpace=wrap;" vertex="1" parent="e-Bmt-6YXR73FlBIPhyy-66">
          <mxGeometry y="29" width="140" height="26" as="geometry" />
        </mxCell>
        <mxCell id="e-Bmt-6YXR73FlBIPhyy-68" value="name" style="text;html=1;strokeColor=none;fillColor=none;align=left;verticalAlign=middle;spacingLeft=4;spacingRight=4;overflow=hidden;rotatable=0;points=[[0,0.5],[1,0.5]];portConstraint=eastwest;whiteSpace=wrap;" vertex="1" parent="e-Bmt-6YXR73FlBIPhyy-66">
          <mxGeometry y="55" width="140" height="26" as="geometry" />
        </mxCell>
        <mxCell id="e-Bmt-6YXR73FlBIPhyy-69" style="edgeStyle=orthogonalEdgeStyle;rounded=0;orthogonalLoop=1;jettySize=auto;html=1;entryX=1;entryY=0.5;entryDx=0;entryDy=0;" edge="1" parent="1" source="e-Bmt-6YXR73FlBIPhyy-65" target="e-Bmt-6YXR73FlBIPhyy-67">
          <mxGeometry relative="1" as="geometry" />
        </mxCell>
        <mxCell id="e-Bmt-6YXR73FlBIPhyy-70" value="SHIPPING" style="swimlane;fontStyle=1;align=center;verticalAlign=middle;childLayout=stackLayout;horizontal=1;startSize=29;horizontalStack=0;resizeParent=1;resizeParentMax=0;resizeLast=0;collapsible=0;marginBottom=0;html=1;whiteSpace=wrap;" vertex="1" parent="1">
          <mxGeometry x="1560" y="-120" width="140" height="185" as="geometry" />
        </mxCell>
        <mxCell id="e-Bmt-6YXR73FlBIPhyy-71" value="userId" style="text;html=1;strokeColor=none;fillColor=none;align=left;verticalAlign=middle;spacingLeft=4;spacingRight=4;overflow=hidden;rotatable=0;points=[[0,0.5],[1,0.5]];portConstraint=eastwest;whiteSpace=wrap;" vertex="1" parent="e-Bmt-6YXR73FlBIPhyy-70">
          <mxGeometry y="29" width="140" height="26" as="geometry" />
        </mxCell>
        <mxCell id="e-Bmt-6YXR73FlBIPhyy-72" value="address1" style="text;html=1;strokeColor=none;fillColor=none;align=left;verticalAlign=middle;spacingLeft=4;spacingRight=4;overflow=hidden;rotatable=0;points=[[0,0.5],[1,0.5]];portConstraint=eastwest;whiteSpace=wrap;" vertex="1" parent="e-Bmt-6YXR73FlBIPhyy-70">
          <mxGeometry y="55" width="140" height="26" as="geometry" />
        </mxCell>
        <mxCell id="e-Bmt-6YXR73FlBIPhyy-73" value="address2" style="text;html=1;strokeColor=none;fillColor=none;align=left;verticalAlign=middle;spacingLeft=4;spacingRight=4;overflow=hidden;rotatable=0;points=[[0,0.5],[1,0.5]];portConstraint=eastwest;whiteSpace=wrap;" vertex="1" parent="e-Bmt-6YXR73FlBIPhyy-70">
          <mxGeometry y="81" width="140" height="26" as="geometry" />
        </mxCell>
        <mxCell id="e-Bmt-6YXR73FlBIPhyy-74" value="billing" style="text;html=1;strokeColor=none;fillColor=none;align=left;verticalAlign=middle;spacingLeft=4;spacingRight=4;overflow=hidden;rotatable=0;points=[[0,0.5],[1,0.5]];portConstraint=eastwest;whiteSpace=wrap;" vertex="1" parent="e-Bmt-6YXR73FlBIPhyy-70">
          <mxGeometry y="107" width="140" height="26" as="geometry" />
        </mxCell>
        <mxCell id="e-Bmt-6YXR73FlBIPhyy-75" value="createdAt" style="text;html=1;strokeColor=none;fillColor=none;align=left;verticalAlign=middle;spacingLeft=4;spacingRight=4;overflow=hidden;rotatable=0;points=[[0,0.5],[1,0.5]];portConstraint=eastwest;whiteSpace=wrap;" vertex="1" parent="e-Bmt-6YXR73FlBIPhyy-70">
          <mxGeometry y="133" width="140" height="26" as="geometry" />
        </mxCell>
        <mxCell id="e-Bmt-6YXR73FlBIPhyy-76" value="id" style="text;html=1;strokeColor=none;fillColor=none;align=left;verticalAlign=middle;spacingLeft=4;spacingRight=4;overflow=hidden;rotatable=0;points=[[0,0.5],[1,0.5]];portConstraint=eastwest;whiteSpace=wrap;" vertex="1" parent="e-Bmt-6YXR73FlBIPhyy-70">
          <mxGeometry y="159" width="140" height="26" as="geometry" />
        </mxCell>
        <mxCell id="e-Bmt-6YXR73FlBIPhyy-77" style="edgeStyle=orthogonalEdgeStyle;rounded=0;orthogonalLoop=1;jettySize=auto;html=1;entryX=0;entryY=0.5;entryDx=0;entryDy=0;" edge="1" parent="1" source="e-Bmt-6YXR73FlBIPhyy-71" target="e-Bmt-6YXR73FlBIPhyy-61">
          <mxGeometry relative="1" as="geometry" />
        </mxCell>
        <mxCell id="e-Bmt-6YXR73FlBIPhyy-78" value="NOTIFICATION" style="swimlane;fontStyle=1;align=center;verticalAlign=middle;childLayout=stackLayout;horizontal=1;startSize=29;horizontalStack=0;resizeParent=1;resizeParentMax=0;resizeLast=0;collapsible=0;marginBottom=0;html=1;whiteSpace=wrap;" vertex="1" parent="1">
          <mxGeometry x="1930" y="-280" width="160" height="211" as="geometry" />
        </mxCell>
        <mxCell id="e-Bmt-6YXR73FlBIPhyy-79" value="typeId" style="text;html=1;strokeColor=none;fillColor=none;align=left;verticalAlign=middle;spacingLeft=4;spacingRight=4;overflow=hidden;rotatable=0;points=[[0,0.5],[1,0.5]];portConstraint=eastwest;whiteSpace=wrap;" vertex="1" parent="e-Bmt-6YXR73FlBIPhyy-78">
          <mxGeometry y="29" width="160" height="26" as="geometry" />
        </mxCell>
        <mxCell id="e-Bmt-6YXR73FlBIPhyy-80" value="id" style="text;html=1;strokeColor=none;fillColor=none;align=left;verticalAlign=middle;spacingLeft=4;spacingRight=4;overflow=hidden;rotatable=0;points=[[0,0.5],[1,0.5]];portConstraint=eastwest;whiteSpace=wrap;" vertex="1" parent="e-Bmt-6YXR73FlBIPhyy-78">
          <mxGeometry y="55" width="160" height="26" as="geometry" />
        </mxCell>
        <mxCell id="e-Bmt-6YXR73FlBIPhyy-81" value="title" style="text;html=1;strokeColor=none;fillColor=none;align=left;verticalAlign=middle;spacingLeft=4;spacingRight=4;overflow=hidden;rotatable=0;points=[[0,0.5],[1,0.5]];portConstraint=eastwest;whiteSpace=wrap;" vertex="1" parent="e-Bmt-6YXR73FlBIPhyy-78">
          <mxGeometry y="81" width="160" height="26" as="geometry" />
        </mxCell>
        <mxCell id="e-Bmt-6YXR73FlBIPhyy-82" value="description" style="text;html=1;strokeColor=none;fillColor=none;align=left;verticalAlign=middle;spacingLeft=4;spacingRight=4;overflow=hidden;rotatable=0;points=[[0,0.5],[1,0.5]];portConstraint=eastwest;whiteSpace=wrap;" vertex="1" parent="e-Bmt-6YXR73FlBIPhyy-78">
          <mxGeometry y="107" width="160" height="26" as="geometry" />
        </mxCell>
        <mxCell id="e-Bmt-6YXR73FlBIPhyy-83" value="createdAt" style="text;html=1;strokeColor=none;fillColor=none;align=left;verticalAlign=middle;spacingLeft=4;spacingRight=4;overflow=hidden;rotatable=0;points=[[0,0.5],[1,0.5]];portConstraint=eastwest;whiteSpace=wrap;" vertex="1" parent="e-Bmt-6YXR73FlBIPhyy-78">
          <mxGeometry y="133" width="160" height="26" as="geometry" />
        </mxCell>
        <mxCell id="e-Bmt-6YXR73FlBIPhyy-84" value="read" style="text;html=1;strokeColor=none;fillColor=none;align=left;verticalAlign=middle;spacingLeft=4;spacingRight=4;overflow=hidden;rotatable=0;points=[[0,0.5],[1,0.5]];portConstraint=eastwest;whiteSpace=wrap;" vertex="1" parent="e-Bmt-6YXR73FlBIPhyy-78">
          <mxGeometry y="159" width="160" height="26" as="geometry" />
        </mxCell>
        <mxCell id="e-Bmt-6YXR73FlBIPhyy-85" value="userId?" style="text;html=1;strokeColor=none;fillColor=none;align=left;verticalAlign=middle;spacingLeft=4;spacingRight=4;overflow=hidden;rotatable=0;points=[[0,0.5],[1,0.5]];portConstraint=eastwest;whiteSpace=wrap;" vertex="1" parent="e-Bmt-6YXR73FlBIPhyy-78">
          <mxGeometry y="185" width="160" height="26" as="geometry" />
        </mxCell>
        <mxCell id="e-Bmt-6YXR73FlBIPhyy-86" value="NOTIFICATION_TYPE" style="swimlane;fontStyle=1;align=center;verticalAlign=middle;childLayout=stackLayout;horizontal=1;startSize=29;horizontalStack=0;resizeParent=1;resizeParentMax=0;resizeLast=0;collapsible=0;marginBottom=0;html=1;whiteSpace=wrap;" vertex="1" parent="1">
          <mxGeometry x="2160" y="-280" width="160" height="81" as="geometry" />
        </mxCell>
        <mxCell id="e-Bmt-6YXR73FlBIPhyy-87" value="name" style="text;html=1;strokeColor=none;fillColor=none;align=left;verticalAlign=middle;spacingLeft=4;spacingRight=4;overflow=hidden;rotatable=0;points=[[0,0.5],[1,0.5]];portConstraint=eastwest;whiteSpace=wrap;" vertex="1" parent="e-Bmt-6YXR73FlBIPhyy-86">
          <mxGeometry y="29" width="160" height="26" as="geometry" />
        </mxCell>
        <mxCell id="e-Bmt-6YXR73FlBIPhyy-88" value="id" style="text;html=1;strokeColor=none;fillColor=none;align=left;verticalAlign=middle;spacingLeft=4;spacingRight=4;overflow=hidden;rotatable=0;points=[[0,0.5],[1,0.5]];portConstraint=eastwest;whiteSpace=wrap;" vertex="1" parent="e-Bmt-6YXR73FlBIPhyy-86">
          <mxGeometry y="55" width="160" height="26" as="geometry" />
        </mxCell>
        <mxCell id="e-Bmt-6YXR73FlBIPhyy-89" style="edgeStyle=orthogonalEdgeStyle;rounded=0;orthogonalLoop=1;jettySize=auto;html=1;entryX=0;entryY=0.5;entryDx=0;entryDy=0;" edge="1" parent="1" source="e-Bmt-6YXR73FlBIPhyy-79" target="e-Bmt-6YXR73FlBIPhyy-88">
          <mxGeometry relative="1" as="geometry" />
        </mxCell>
        <mxCell id="e-Bmt-6YXR73FlBIPhyy-90" style="edgeStyle=orthogonalEdgeStyle;rounded=0;orthogonalLoop=1;jettySize=auto;html=1;entryX=1;entryY=0.5;entryDx=0;entryDy=0;" edge="1" parent="1" source="e-Bmt-6YXR73FlBIPhyy-85" target="e-Bmt-6YXR73FlBIPhyy-61">
          <mxGeometry relative="1" as="geometry" />
        </mxCell>
        <mxCell id="e-Bmt-6YXR73FlBIPhyy-91" value="ORDER" style="swimlane;fontStyle=1;align=center;verticalAlign=middle;childLayout=stackLayout;horizontal=1;startSize=29;horizontalStack=0;resizeParent=1;resizeParentMax=0;resizeLast=0;collapsible=0;marginBottom=0;html=1;whiteSpace=wrap;" vertex="1" parent="1">
          <mxGeometry x="1740" y="23" width="140" height="185" as="geometry" />
        </mxCell>
        <mxCell id="e-Bmt-6YXR73FlBIPhyy-92" value="userId" style="text;html=1;strokeColor=none;fillColor=none;align=left;verticalAlign=middle;spacingLeft=4;spacingRight=4;overflow=hidden;rotatable=0;points=[[0,0.5],[1,0.5]];portConstraint=eastwest;whiteSpace=wrap;" vertex="1" parent="e-Bmt-6YXR73FlBIPhyy-91">
          <mxGeometry y="29" width="140" height="26" as="geometry" />
        </mxCell>
        <mxCell id="e-Bmt-6YXR73FlBIPhyy-93" value="id" style="text;html=1;strokeColor=none;fillColor=none;align=left;verticalAlign=middle;spacingLeft=4;spacingRight=4;overflow=hidden;rotatable=0;points=[[0,0.5],[1,0.5]];portConstraint=eastwest;whiteSpace=wrap;" vertex="1" parent="e-Bmt-6YXR73FlBIPhyy-91">
          <mxGeometry y="55" width="140" height="26" as="geometry" />
        </mxCell>
        <mxCell id="e-Bmt-6YXR73FlBIPhyy-94" value="shippingId" style="text;html=1;strokeColor=none;fillColor=none;align=left;verticalAlign=middle;spacingLeft=4;spacingRight=4;overflow=hidden;rotatable=0;points=[[0,0.5],[1,0.5]];portConstraint=eastwest;whiteSpace=wrap;" vertex="1" parent="e-Bmt-6YXR73FlBIPhyy-91">
          <mxGeometry y="81" width="140" height="26" as="geometry" />
        </mxCell>
        <mxCell id="e-Bmt-6YXR73FlBIPhyy-95" value="statusId" style="text;html=1;strokeColor=none;fillColor=none;align=left;verticalAlign=middle;spacingLeft=4;spacingRight=4;overflow=hidden;rotatable=0;points=[[0,0.5],[1,0.5]];portConstraint=eastwest;whiteSpace=wrap;" vertex="1" parent="e-Bmt-6YXR73FlBIPhyy-91">
          <mxGeometry y="107" width="140" height="26" as="geometry" />
        </mxCell>
        <mxCell id="e-Bmt-6YXR73FlBIPhyy-96" value="shippingOptionId" style="text;html=1;strokeColor=none;fillColor=none;align=left;verticalAlign=middle;spacingLeft=4;spacingRight=4;overflow=hidden;rotatable=0;points=[[0,0.5],[1,0.5]];portConstraint=eastwest;whiteSpace=wrap;" vertex="1" parent="e-Bmt-6YXR73FlBIPhyy-91">
          <mxGeometry y="133" width="140" height="26" as="geometry" />
        </mxCell>
        <mxCell id="e-Bmt-6YXR73FlBIPhyy-97" value="paymentOptionId" style="text;html=1;strokeColor=none;fillColor=none;align=left;verticalAlign=middle;spacingLeft=4;spacingRight=4;overflow=hidden;rotatable=0;points=[[0,0.5],[1,0.5]];portConstraint=eastwest;whiteSpace=wrap;" vertex="1" parent="e-Bmt-6YXR73FlBIPhyy-91">
          <mxGeometry y="159" width="140" height="26" as="geometry" />
        </mxCell>
        <mxCell id="e-Bmt-6YXR73FlBIPhyy-98" style="edgeStyle=orthogonalEdgeStyle;rounded=0;orthogonalLoop=1;jettySize=auto;html=1;entryX=0;entryY=0.5;entryDx=0;entryDy=0;" edge="1" parent="1" source="e-Bmt-6YXR73FlBIPhyy-92" target="e-Bmt-6YXR73FlBIPhyy-61">
          <mxGeometry relative="1" as="geometry" />
        </mxCell>
        <mxCell id="e-Bmt-6YXR73FlBIPhyy-99" style="edgeStyle=orthogonalEdgeStyle;rounded=0;orthogonalLoop=1;jettySize=auto;html=1;entryX=1;entryY=0.5;entryDx=0;entryDy=0;" edge="1" parent="1" source="e-Bmt-6YXR73FlBIPhyy-94" target="e-Bmt-6YXR73FlBIPhyy-76">
          <mxGeometry relative="1" as="geometry" />
        </mxCell>
        <mxCell id="e-Bmt-6YXR73FlBIPhyy-100" value="ORDER_STATUS" style="swimlane;fontStyle=1;align=center;verticalAlign=middle;childLayout=stackLayout;horizontal=1;startSize=29;horizontalStack=0;resizeParent=1;resizeParentMax=0;resizeLast=0;collapsible=0;marginBottom=0;html=1;whiteSpace=wrap;" vertex="1" parent="1">
          <mxGeometry x="1560" y="119" width="140" height="81" as="geometry" />
        </mxCell>
        <mxCell id="e-Bmt-6YXR73FlBIPhyy-101" value="id" style="text;html=1;strokeColor=none;fillColor=none;align=left;verticalAlign=middle;spacingLeft=4;spacingRight=4;overflow=hidden;rotatable=0;points=[[0,0.5],[1,0.5]];portConstraint=eastwest;whiteSpace=wrap;" vertex="1" parent="e-Bmt-6YXR73FlBIPhyy-100">
          <mxGeometry y="29" width="140" height="26" as="geometry" />
        </mxCell>
        <mxCell id="e-Bmt-6YXR73FlBIPhyy-102" value="name" style="text;html=1;strokeColor=none;fillColor=none;align=left;verticalAlign=middle;spacingLeft=4;spacingRight=4;overflow=hidden;rotatable=0;points=[[0,0.5],[1,0.5]];portConstraint=eastwest;whiteSpace=wrap;" vertex="1" parent="e-Bmt-6YXR73FlBIPhyy-100">
          <mxGeometry y="55" width="140" height="26" as="geometry" />
        </mxCell>
        <mxCell id="e-Bmt-6YXR73FlBIPhyy-103" style="edgeStyle=orthogonalEdgeStyle;rounded=0;orthogonalLoop=1;jettySize=auto;html=1;entryX=1;entryY=0.5;entryDx=0;entryDy=0;" edge="1" parent="1" source="e-Bmt-6YXR73FlBIPhyy-95" target="e-Bmt-6YXR73FlBIPhyy-101">
          <mxGeometry relative="1" as="geometry" />
        </mxCell>
        <mxCell id="e-Bmt-6YXR73FlBIPhyy-104" value="PAYMENT_OPTION" style="swimlane;fontStyle=1;align=center;verticalAlign=middle;childLayout=stackLayout;horizontal=1;startSize=29;horizontalStack=0;resizeParent=1;resizeParentMax=0;resizeLast=0;collapsible=0;marginBottom=0;html=1;whiteSpace=wrap;" vertex="1" parent="1">
          <mxGeometry x="1740" y="224" width="140" height="81" as="geometry" />
        </mxCell>
        <mxCell id="e-Bmt-6YXR73FlBIPhyy-105" value="id" style="text;html=1;strokeColor=none;fillColor=none;align=left;verticalAlign=middle;spacingLeft=4;spacingRight=4;overflow=hidden;rotatable=0;points=[[0,0.5],[1,0.5]];portConstraint=eastwest;whiteSpace=wrap;" vertex="1" parent="e-Bmt-6YXR73FlBIPhyy-104">
          <mxGeometry y="29" width="140" height="26" as="geometry" />
        </mxCell>
        <mxCell id="e-Bmt-6YXR73FlBIPhyy-106" value="name" style="text;html=1;strokeColor=none;fillColor=none;align=left;verticalAlign=middle;spacingLeft=4;spacingRight=4;overflow=hidden;rotatable=0;points=[[0,0.5],[1,0.5]];portConstraint=eastwest;whiteSpace=wrap;" vertex="1" parent="e-Bmt-6YXR73FlBIPhyy-104">
          <mxGeometry y="55" width="140" height="26" as="geometry" />
        </mxCell>
        <mxCell id="e-Bmt-6YXR73FlBIPhyy-107" value="SHIPPING_OPTION" style="swimlane;fontStyle=1;align=center;verticalAlign=middle;childLayout=stackLayout;horizontal=1;startSize=29;horizontalStack=0;resizeParent=1;resizeParentMax=0;resizeLast=0;collapsible=0;marginBottom=0;html=1;whiteSpace=wrap;" vertex="1" parent="1">
          <mxGeometry x="1560" y="224" width="140" height="107" as="geometry" />
        </mxCell>
        <mxCell id="e-Bmt-6YXR73FlBIPhyy-108" value="id" style="text;html=1;strokeColor=none;fillColor=none;align=left;verticalAlign=middle;spacingLeft=4;spacingRight=4;overflow=hidden;rotatable=0;points=[[0,0.5],[1,0.5]];portConstraint=eastwest;whiteSpace=wrap;" vertex="1" parent="e-Bmt-6YXR73FlBIPhyy-107">
          <mxGeometry y="29" width="140" height="26" as="geometry" />
        </mxCell>
        <mxCell id="e-Bmt-6YXR73FlBIPhyy-109" value="name" style="text;html=1;strokeColor=none;fillColor=none;align=left;verticalAlign=middle;spacingLeft=4;spacingRight=4;overflow=hidden;rotatable=0;points=[[0,0.5],[1,0.5]];portConstraint=eastwest;whiteSpace=wrap;" vertex="1" parent="e-Bmt-6YXR73FlBIPhyy-107">
          <mxGeometry y="55" width="140" height="26" as="geometry" />
        </mxCell>
        <mxCell id="e-Bmt-6YXR73FlBIPhyy-110" value="price" style="text;html=1;strokeColor=none;fillColor=none;align=left;verticalAlign=middle;spacingLeft=4;spacingRight=4;overflow=hidden;rotatable=0;points=[[0,0.5],[1,0.5]];portConstraint=eastwest;whiteSpace=wrap;" vertex="1" parent="e-Bmt-6YXR73FlBIPhyy-107">
          <mxGeometry y="81" width="140" height="26" as="geometry" />
        </mxCell>
        <mxCell id="e-Bmt-6YXR73FlBIPhyy-111" style="edgeStyle=orthogonalEdgeStyle;rounded=0;orthogonalLoop=1;jettySize=auto;html=1;entryX=1;entryY=0.5;entryDx=0;entryDy=0;exitX=1;exitY=0.5;exitDx=0;exitDy=0;" edge="1" parent="1" source="e-Bmt-6YXR73FlBIPhyy-97" target="e-Bmt-6YXR73FlBIPhyy-105">
          <mxGeometry relative="1" as="geometry" />
        </mxCell>
        <mxCell id="e-Bmt-6YXR73FlBIPhyy-112" style="edgeStyle=orthogonalEdgeStyle;rounded=0;orthogonalLoop=1;jettySize=auto;html=1;entryX=1;entryY=0.5;entryDx=0;entryDy=0;" edge="1" parent="1" source="e-Bmt-6YXR73FlBIPhyy-96" target="e-Bmt-6YXR73FlBIPhyy-108">
          <mxGeometry relative="1" as="geometry" />
        </mxCell>
        <mxCell id="e-Bmt-6YXR73FlBIPhyy-113" value="PRODUCT" style="swimlane;fontStyle=1;align=center;verticalAlign=middle;childLayout=stackLayout;horizontal=1;startSize=29;horizontalStack=0;resizeParent=1;resizeParentMax=0;resizeLast=0;collapsible=0;marginBottom=0;html=1;whiteSpace=wrap;" vertex="1" parent="1">
          <mxGeometry x="2170" y="40" width="140" height="185" as="geometry" />
        </mxCell>
        <mxCell id="e-Bmt-6YXR73FlBIPhyy-114" value="unitId" style="text;html=1;strokeColor=none;fillColor=none;align=left;verticalAlign=middle;spacingLeft=4;spacingRight=4;overflow=hidden;rotatable=0;points=[[0,0.5],[1,0.5]];portConstraint=eastwest;whiteSpace=wrap;" vertex="1" parent="e-Bmt-6YXR73FlBIPhyy-113">
          <mxGeometry y="29" width="140" height="26" as="geometry" />
        </mxCell>
        <mxCell id="e-Bmt-6YXR73FlBIPhyy-115" value="id" style="text;html=1;strokeColor=none;fillColor=none;align=left;verticalAlign=middle;spacingLeft=4;spacingRight=4;overflow=hidden;rotatable=0;points=[[0,0.5],[1,0.5]];portConstraint=eastwest;whiteSpace=wrap;" vertex="1" parent="e-Bmt-6YXR73FlBIPhyy-113">
          <mxGeometry y="55" width="140" height="26" as="geometry" />
        </mxCell>
        <mxCell id="e-Bmt-6YXR73FlBIPhyy-116" value="name" style="text;html=1;strokeColor=none;fillColor=none;align=left;verticalAlign=middle;spacingLeft=4;spacingRight=4;overflow=hidden;rotatable=0;points=[[0,0.5],[1,0.5]];portConstraint=eastwest;whiteSpace=wrap;" vertex="1" parent="e-Bmt-6YXR73FlBIPhyy-113">
          <mxGeometry y="81" width="140" height="26" as="geometry" />
        </mxCell>
        <mxCell id="e-Bmt-6YXR73FlBIPhyy-117" value="description" style="text;html=1;strokeColor=none;fillColor=none;align=left;verticalAlign=middle;spacingLeft=4;spacingRight=4;overflow=hidden;rotatable=0;points=[[0,0.5],[1,0.5]];portConstraint=eastwest;whiteSpace=wrap;" vertex="1" parent="e-Bmt-6YXR73FlBIPhyy-113">
          <mxGeometry y="107" width="140" height="26" as="geometry" />
        </mxCell>
        <mxCell id="e-Bmt-6YXR73FlBIPhyy-118" value="image" style="text;html=1;strokeColor=none;fillColor=none;align=left;verticalAlign=middle;spacingLeft=4;spacingRight=4;overflow=hidden;rotatable=0;points=[[0,0.5],[1,0.5]];portConstraint=eastwest;whiteSpace=wrap;" vertex="1" parent="e-Bmt-6YXR73FlBIPhyy-113">
          <mxGeometry y="133" width="140" height="26" as="geometry" />
        </mxCell>
        <mxCell id="e-Bmt-6YXR73FlBIPhyy-119" value="createdAt" style="text;html=1;strokeColor=none;fillColor=none;align=left;verticalAlign=middle;spacingLeft=4;spacingRight=4;overflow=hidden;rotatable=0;points=[[0,0.5],[1,0.5]];portConstraint=eastwest;whiteSpace=wrap;" vertex="1" parent="e-Bmt-6YXR73FlBIPhyy-113">
          <mxGeometry y="159" width="140" height="26" as="geometry" />
        </mxCell>
        <mxCell id="e-Bmt-6YXR73FlBIPhyy-120" value="PRODUCT_VARIANT_VALUE" style="swimlane;fontStyle=1;align=center;verticalAlign=middle;childLayout=stackLayout;horizontal=1;startSize=29;horizontalStack=0;resizeParent=1;resizeParentMax=0;resizeLast=0;collapsible=0;marginBottom=0;html=1;whiteSpace=wrap;" vertex="1" parent="1">
          <mxGeometry x="2850" y="148.5" width="200" height="107" as="geometry" />
        </mxCell>
        <mxCell id="e-Bmt-6YXR73FlBIPhyy-121" value="id" style="text;html=1;strokeColor=none;fillColor=none;align=left;verticalAlign=middle;spacingLeft=4;spacingRight=4;overflow=hidden;rotatable=0;points=[[0,0.5],[1,0.5]];portConstraint=eastwest;whiteSpace=wrap;" vertex="1" parent="e-Bmt-6YXR73FlBIPhyy-120">
          <mxGeometry y="29" width="200" height="26" as="geometry" />
        </mxCell>
        <mxCell id="e-Bmt-6YXR73FlBIPhyy-122" value="keyId" style="text;html=1;strokeColor=none;fillColor=none;align=left;verticalAlign=middle;spacingLeft=4;spacingRight=4;overflow=hidden;rotatable=0;points=[[0,0.5],[1,0.5]];portConstraint=eastwest;whiteSpace=wrap;" vertex="1" parent="e-Bmt-6YXR73FlBIPhyy-120">
          <mxGeometry y="55" width="200" height="26" as="geometry" />
        </mxCell>
        <mxCell id="e-Bmt-6YXR73FlBIPhyy-123" value="value" style="text;html=1;strokeColor=none;fillColor=none;align=left;verticalAlign=middle;spacingLeft=4;spacingRight=4;overflow=hidden;rotatable=0;points=[[0,0.5],[1,0.5]];portConstraint=eastwest;whiteSpace=wrap;" vertex="1" parent="e-Bmt-6YXR73FlBIPhyy-120">
          <mxGeometry y="81" width="200" height="26" as="geometry" />
        </mxCell>
        <mxCell id="e-Bmt-6YXR73FlBIPhyy-124" value="PRODUCT_VARIANT_KEY" style="swimlane;fontStyle=1;align=center;verticalAlign=middle;childLayout=stackLayout;horizontal=1;startSize=29;horizontalStack=0;resizeParent=1;resizeParentMax=0;resizeLast=0;collapsible=0;marginBottom=0;html=1;whiteSpace=wrap;" vertex="1" parent="1">
          <mxGeometry x="2860" y="40" width="190" height="81" as="geometry" />
        </mxCell>
        <mxCell id="e-Bmt-6YXR73FlBIPhyy-125" value="id" style="text;html=1;strokeColor=none;fillColor=none;align=left;verticalAlign=middle;spacingLeft=4;spacingRight=4;overflow=hidden;rotatable=0;points=[[0,0.5],[1,0.5]];portConstraint=eastwest;whiteSpace=wrap;" vertex="1" parent="e-Bmt-6YXR73FlBIPhyy-124">
          <mxGeometry y="29" width="190" height="26" as="geometry" />
        </mxCell>
        <mxCell id="e-Bmt-6YXR73FlBIPhyy-126" value="key" style="text;html=1;strokeColor=none;fillColor=none;align=left;verticalAlign=middle;spacingLeft=4;spacingRight=4;overflow=hidden;rotatable=0;points=[[0,0.5],[1,0.5]];portConstraint=eastwest;whiteSpace=wrap;" vertex="1" parent="e-Bmt-6YXR73FlBIPhyy-124">
          <mxGeometry y="55" width="190" height="26" as="geometry" />
        </mxCell>
        <mxCell id="e-Bmt-6YXR73FlBIPhyy-127" value="PRODUCT_VARIANT_COLL" style="swimlane;fontStyle=1;align=center;verticalAlign=middle;childLayout=stackLayout;horizontal=1;startSize=29;horizontalStack=0;resizeParent=1;resizeParentMax=0;resizeLast=0;collapsible=0;marginBottom=0;html=1;whiteSpace=wrap;" vertex="1" parent="1">
          <mxGeometry x="2590" y="40" width="190" height="133" as="geometry" />
        </mxCell>
        <mxCell id="e-Bmt-6YXR73FlBIPhyy-128" value="id" style="text;html=1;strokeColor=none;fillColor=none;align=left;verticalAlign=middle;spacingLeft=4;spacingRight=4;overflow=hidden;rotatable=0;points=[[0,0.5],[1,0.5]];portConstraint=eastwest;whiteSpace=wrap;" vertex="1" parent="e-Bmt-6YXR73FlBIPhyy-127">
          <mxGeometry y="29" width="190" height="26" as="geometry" />
        </mxCell>
        <mxCell id="e-Bmt-6YXR73FlBIPhyy-129" value="keyId unique" style="text;html=1;strokeColor=none;fillColor=none;align=left;verticalAlign=middle;spacingLeft=4;spacingRight=4;overflow=hidden;rotatable=0;points=[[0,0.5],[1,0.5]];portConstraint=eastwest;whiteSpace=wrap;" vertex="1" parent="e-Bmt-6YXR73FlBIPhyy-127">
          <mxGeometry y="55" width="190" height="26" as="geometry" />
        </mxCell>
        <mxCell id="e-Bmt-6YXR73FlBIPhyy-130" value="valueId unique" style="text;html=1;strokeColor=none;fillColor=none;align=left;verticalAlign=middle;spacingLeft=4;spacingRight=4;overflow=hidden;rotatable=0;points=[[0,0.5],[1,0.5]];portConstraint=eastwest;whiteSpace=wrap;" vertex="1" parent="e-Bmt-6YXR73FlBIPhyy-127">
          <mxGeometry y="81" width="190" height="26" as="geometry" />
        </mxCell>
        <mxCell id="e-Bmt-6YXR73FlBIPhyy-131" value="variantId unique" style="text;html=1;strokeColor=none;fillColor=none;align=left;verticalAlign=middle;spacingLeft=4;spacingRight=4;overflow=hidden;rotatable=0;points=[[0,0.5],[1,0.5]];portConstraint=eastwest;whiteSpace=wrap;" vertex="1" parent="e-Bmt-6YXR73FlBIPhyy-127">
          <mxGeometry y="107" width="190" height="26" as="geometry" />
        </mxCell>
        <mxCell id="e-Bmt-6YXR73FlBIPhyy-132" style="edgeStyle=orthogonalEdgeStyle;rounded=0;orthogonalLoop=1;jettySize=auto;html=1;entryX=1;entryY=0.5;entryDx=0;entryDy=0;" edge="1" parent="1" source="e-Bmt-6YXR73FlBIPhyy-122" target="e-Bmt-6YXR73FlBIPhyy-125">
          <mxGeometry relative="1" as="geometry" />
        </mxCell>
        <mxCell id="e-Bmt-6YXR73FlBIPhyy-133" style="edgeStyle=orthogonalEdgeStyle;rounded=0;orthogonalLoop=1;jettySize=auto;html=1;entryX=0;entryY=0.5;entryDx=0;entryDy=0;" edge="1" parent="1" source="e-Bmt-6YXR73FlBIPhyy-130" target="e-Bmt-6YXR73FlBIPhyy-121">
          <mxGeometry relative="1" as="geometry" />
        </mxCell>
        <mxCell id="e-Bmt-6YXR73FlBIPhyy-134" style="edgeStyle=orthogonalEdgeStyle;rounded=0;orthogonalLoop=1;jettySize=auto;html=1;entryX=0;entryY=0.5;entryDx=0;entryDy=0;" edge="1" parent="1" source="e-Bmt-6YXR73FlBIPhyy-129" target="e-Bmt-6YXR73FlBIPhyy-125">
          <mxGeometry relative="1" as="geometry" />
        </mxCell>
        <mxCell id="e-Bmt-6YXR73FlBIPhyy-135" value="PRODUCT_VARIANT" style="swimlane;fontStyle=1;align=center;verticalAlign=middle;childLayout=stackLayout;horizontal=1;startSize=29;horizontalStack=0;resizeParent=1;resizeParentMax=0;resizeLast=0;collapsible=0;marginBottom=0;html=1;whiteSpace=wrap;" vertex="1" parent="1">
          <mxGeometry x="2360" y="40" width="190" height="107" as="geometry" />
        </mxCell>
        <mxCell id="e-Bmt-6YXR73FlBIPhyy-136" value="price" style="text;html=1;strokeColor=none;fillColor=none;align=left;verticalAlign=middle;spacingLeft=4;spacingRight=4;overflow=hidden;rotatable=0;points=[[0,0.5],[1,0.5]];portConstraint=eastwest;whiteSpace=wrap;" vertex="1" parent="e-Bmt-6YXR73FlBIPhyy-135">
          <mxGeometry y="29" width="190" height="26" as="geometry" />
        </mxCell>
        <mxCell id="e-Bmt-6YXR73FlBIPhyy-137" value="productId" style="text;html=1;strokeColor=none;fillColor=none;align=left;verticalAlign=middle;spacingLeft=4;spacingRight=4;overflow=hidden;rotatable=0;points=[[0,0.5],[1,0.5]];portConstraint=eastwest;whiteSpace=wrap;" vertex="1" parent="e-Bmt-6YXR73FlBIPhyy-135">
          <mxGeometry y="55" width="190" height="26" as="geometry" />
        </mxCell>
        <mxCell id="e-Bmt-6YXR73FlBIPhyy-138" value="id" style="text;html=1;strokeColor=none;fillColor=none;align=left;verticalAlign=middle;spacingLeft=4;spacingRight=4;overflow=hidden;rotatable=0;points=[[0,0.5],[1,0.5]];portConstraint=eastwest;whiteSpace=wrap;" vertex="1" parent="e-Bmt-6YXR73FlBIPhyy-135">
          <mxGeometry y="81" width="190" height="26" as="geometry" />
        </mxCell>
        <mxCell id="e-Bmt-6YXR73FlBIPhyy-139" style="edgeStyle=orthogonalEdgeStyle;rounded=0;orthogonalLoop=1;jettySize=auto;html=1;entryX=1;entryY=0.5;entryDx=0;entryDy=0;" edge="1" parent="1" source="e-Bmt-6YXR73FlBIPhyy-131" target="e-Bmt-6YXR73FlBIPhyy-138">
          <mxGeometry relative="1" as="geometry" />
        </mxCell>
        <mxCell id="e-Bmt-6YXR73FlBIPhyy-140" style="edgeStyle=orthogonalEdgeStyle;rounded=0;orthogonalLoop=1;jettySize=auto;html=1;entryX=1;entryY=0.5;entryDx=0;entryDy=0;" edge="1" parent="1" source="e-Bmt-6YXR73FlBIPhyy-137" target="e-Bmt-6YXR73FlBIPhyy-115">
          <mxGeometry relative="1" as="geometry" />
        </mxCell>
        <mxCell id="e-Bmt-6YXR73FlBIPhyy-141" value="UNITS" style="swimlane;fontStyle=1;align=center;verticalAlign=middle;childLayout=stackLayout;horizontal=1;startSize=29;horizontalStack=0;resizeParent=1;resizeParentMax=0;resizeLast=0;collapsible=0;marginBottom=0;html=1;whiteSpace=wrap;" vertex="1" parent="1">
          <mxGeometry x="2170" y="-58" width="140" height="81" as="geometry" />
        </mxCell>
        <mxCell id="e-Bmt-6YXR73FlBIPhyy-142" value="id" style="text;html=1;strokeColor=none;fillColor=none;align=left;verticalAlign=middle;spacingLeft=4;spacingRight=4;overflow=hidden;rotatable=0;points=[[0,0.5],[1,0.5]];portConstraint=eastwest;whiteSpace=wrap;" vertex="1" parent="e-Bmt-6YXR73FlBIPhyy-141">
          <mxGeometry y="29" width="140" height="26" as="geometry" />
        </mxCell>
        <mxCell id="e-Bmt-6YXR73FlBIPhyy-143" value="name" style="text;html=1;strokeColor=none;fillColor=none;align=left;verticalAlign=middle;spacingLeft=4;spacingRight=4;overflow=hidden;rotatable=0;points=[[0,0.5],[1,0.5]];portConstraint=eastwest;whiteSpace=wrap;" vertex="1" parent="e-Bmt-6YXR73FlBIPhyy-141">
          <mxGeometry y="55" width="140" height="26" as="geometry" />
        </mxCell>
        <mxCell id="e-Bmt-6YXR73FlBIPhyy-144" style="edgeStyle=orthogonalEdgeStyle;rounded=0;orthogonalLoop=1;jettySize=auto;html=1;entryX=1;entryY=0.5;entryDx=0;entryDy=0;exitX=1;exitY=0.5;exitDx=0;exitDy=0;" edge="1" parent="1" source="e-Bmt-6YXR73FlBIPhyy-114" target="e-Bmt-6YXR73FlBIPhyy-142">
          <mxGeometry relative="1" as="geometry" />
        </mxCell>
        <mxCell id="e-Bmt-6YXR73FlBIPhyy-145" value="WAREHOUSE" style="swimlane;fontStyle=1;align=center;verticalAlign=middle;childLayout=stackLayout;horizontal=1;startSize=29;horizontalStack=0;resizeParent=1;resizeParentMax=0;resizeLast=0;collapsible=0;marginBottom=0;html=1;whiteSpace=wrap;" vertex="1" parent="1">
          <mxGeometry x="2360" y="310" width="190" height="81" as="geometry" />
        </mxCell>
        <mxCell id="e-Bmt-6YXR73FlBIPhyy-146" value="id" style="text;html=1;strokeColor=none;fillColor=none;align=left;verticalAlign=middle;spacingLeft=4;spacingRight=4;overflow=hidden;rotatable=0;points=[[0,0.5],[1,0.5]];portConstraint=eastwest;whiteSpace=wrap;" vertex="1" parent="e-Bmt-6YXR73FlBIPhyy-145">
          <mxGeometry y="29" width="190" height="26" as="geometry" />
        </mxCell>
        <mxCell id="e-Bmt-6YXR73FlBIPhyy-147" value="name" style="text;html=1;strokeColor=none;fillColor=none;align=left;verticalAlign=middle;spacingLeft=4;spacingRight=4;overflow=hidden;rotatable=0;points=[[0,0.5],[1,0.5]];portConstraint=eastwest;whiteSpace=wrap;" vertex="1" parent="e-Bmt-6YXR73FlBIPhyy-145">
          <mxGeometry y="55" width="190" height="26" as="geometry" />
        </mxCell>
        <mxCell id="e-Bmt-6YXR73FlBIPhyy-148" value="VARIANT_WAREHOUSE" style="swimlane;fontStyle=1;align=center;verticalAlign=middle;childLayout=stackLayout;horizontal=1;startSize=29;horizontalStack=0;resizeParent=1;resizeParentMax=0;resizeLast=0;collapsible=0;marginBottom=0;html=1;whiteSpace=wrap;" vertex="1" parent="1">
          <mxGeometry x="2360" y="160" width="190" height="133" as="geometry" />
        </mxCell>
        <mxCell id="e-Bmt-6YXR73FlBIPhyy-149" value="variantId" style="text;html=1;strokeColor=none;fillColor=none;align=left;verticalAlign=middle;spacingLeft=4;spacingRight=4;overflow=hidden;rotatable=0;points=[[0,0.5],[1,0.5]];portConstraint=eastwest;whiteSpace=wrap;" vertex="1" parent="e-Bmt-6YXR73FlBIPhyy-148">
          <mxGeometry y="29" width="190" height="26" as="geometry" />
        </mxCell>
        <mxCell id="e-Bmt-6YXR73FlBIPhyy-150" value="id" style="text;html=1;strokeColor=none;fillColor=none;align=left;verticalAlign=middle;spacingLeft=4;spacingRight=4;overflow=hidden;rotatable=0;points=[[0,0.5],[1,0.5]];portConstraint=eastwest;whiteSpace=wrap;" vertex="1" parent="e-Bmt-6YXR73FlBIPhyy-148">
          <mxGeometry y="55" width="190" height="26" as="geometry" />
        </mxCell>
        <mxCell id="e-Bmt-6YXR73FlBIPhyy-151" value="stock" style="text;html=1;strokeColor=none;fillColor=none;align=left;verticalAlign=middle;spacingLeft=4;spacingRight=4;overflow=hidden;rotatable=0;points=[[0,0.5],[1,0.5]];portConstraint=eastwest;whiteSpace=wrap;" vertex="1" parent="e-Bmt-6YXR73FlBIPhyy-148">
          <mxGeometry y="81" width="190" height="26" as="geometry" />
        </mxCell>
        <mxCell id="e-Bmt-6YXR73FlBIPhyy-152" value="warehouseId" style="text;html=1;strokeColor=none;fillColor=none;align=left;verticalAlign=middle;spacingLeft=4;spacingRight=4;overflow=hidden;rotatable=0;points=[[0,0.5],[1,0.5]];portConstraint=eastwest;whiteSpace=wrap;" vertex="1" parent="e-Bmt-6YXR73FlBIPhyy-148">
          <mxGeometry y="107" width="190" height="26" as="geometry" />
        </mxCell>
        <mxCell id="e-Bmt-6YXR73FlBIPhyy-153" style="edgeStyle=orthogonalEdgeStyle;rounded=0;orthogonalLoop=1;jettySize=auto;html=1;entryX=0;entryY=0.5;entryDx=0;entryDy=0;" edge="1" parent="1" source="e-Bmt-6YXR73FlBIPhyy-149" target="e-Bmt-6YXR73FlBIPhyy-138">
          <mxGeometry relative="1" as="geometry" />
        </mxCell>
        <mxCell id="e-Bmt-6YXR73FlBIPhyy-154" style="edgeStyle=orthogonalEdgeStyle;rounded=0;orthogonalLoop=1;jettySize=auto;html=1;entryX=0;entryY=0.5;entryDx=0;entryDy=0;" edge="1" parent="1" source="e-Bmt-6YXR73FlBIPhyy-146" target="e-Bmt-6YXR73FlBIPhyy-152">
          <mxGeometry relative="1" as="geometry" />
        </mxCell>
        <mxCell id="e-Bmt-6YXR73FlBIPhyy-155" value="PRODUCT_IMAGE" style="swimlane;fontStyle=1;align=center;verticalAlign=middle;childLayout=stackLayout;horizontal=1;startSize=29;horizontalStack=0;resizeParent=1;resizeParentMax=0;resizeLast=0;collapsible=0;marginBottom=0;html=1;whiteSpace=wrap;" vertex="1" parent="1">
          <mxGeometry x="2160" y="235.5" width="160" height="159" as="geometry" />
        </mxCell>
        <mxCell id="e-Bmt-6YXR73FlBIPhyy-156" value="productId" style="text;html=1;strokeColor=none;fillColor=none;align=left;verticalAlign=middle;spacingLeft=4;spacingRight=4;overflow=hidden;rotatable=0;points=[[0,0.5],[1,0.5]];portConstraint=eastwest;whiteSpace=wrap;" vertex="1" parent="e-Bmt-6YXR73FlBIPhyy-155">
          <mxGeometry y="29" width="160" height="26" as="geometry" />
        </mxCell>
        <mxCell id="e-Bmt-6YXR73FlBIPhyy-157" value="id" style="text;html=1;strokeColor=none;fillColor=none;align=left;verticalAlign=middle;spacingLeft=4;spacingRight=4;overflow=hidden;rotatable=0;points=[[0,0.5],[1,0.5]];portConstraint=eastwest;whiteSpace=wrap;" vertex="1" parent="e-Bmt-6YXR73FlBIPhyy-155">
          <mxGeometry y="55" width="160" height="26" as="geometry" />
        </mxCell>
        <mxCell id="e-Bmt-6YXR73FlBIPhyy-158" value="name" style="text;html=1;strokeColor=none;fillColor=none;align=left;verticalAlign=middle;spacingLeft=4;spacingRight=4;overflow=hidden;rotatable=0;points=[[0,0.5],[1,0.5]];portConstraint=eastwest;whiteSpace=wrap;" vertex="1" parent="e-Bmt-6YXR73FlBIPhyy-155">
          <mxGeometry y="81" width="160" height="26" as="geometry" />
        </mxCell>
        <mxCell id="e-Bmt-6YXR73FlBIPhyy-159" value="size" style="text;html=1;strokeColor=none;fillColor=none;align=left;verticalAlign=middle;spacingLeft=4;spacingRight=4;overflow=hidden;rotatable=0;points=[[0,0.5],[1,0.5]];portConstraint=eastwest;whiteSpace=wrap;" vertex="1" parent="e-Bmt-6YXR73FlBIPhyy-155">
          <mxGeometry y="107" width="160" height="26" as="geometry" />
        </mxCell>
        <mxCell id="e-Bmt-6YXR73FlBIPhyy-160" value="createdAt" style="text;html=1;strokeColor=none;fillColor=none;align=left;verticalAlign=middle;spacingLeft=4;spacingRight=4;overflow=hidden;rotatable=0;points=[[0,0.5],[1,0.5]];portConstraint=eastwest;whiteSpace=wrap;" vertex="1" parent="e-Bmt-6YXR73FlBIPhyy-155">
          <mxGeometry y="133" width="160" height="26" as="geometry" />
        </mxCell>
        <mxCell id="e-Bmt-6YXR73FlBIPhyy-161" style="edgeStyle=orthogonalEdgeStyle;rounded=0;orthogonalLoop=1;jettySize=auto;html=1;entryX=0;entryY=0.5;entryDx=0;entryDy=0;" edge="1" parent="1" source="e-Bmt-6YXR73FlBIPhyy-156" target="e-Bmt-6YXR73FlBIPhyy-115">
          <mxGeometry relative="1" as="geometry" />
        </mxCell>
        <mxCell id="e-Bmt-6YXR73FlBIPhyy-162" value="CART_ITEMS" style="swimlane;fontStyle=1;align=center;verticalAlign=middle;childLayout=stackLayout;horizontal=1;startSize=29;horizontalStack=0;resizeParent=1;resizeParentMax=0;resizeLast=0;collapsible=0;marginBottom=0;html=1;whiteSpace=wrap;" vertex="1" parent="1">
          <mxGeometry x="1930" y="-60" width="140" height="159" as="geometry" />
        </mxCell>
        <mxCell id="e-Bmt-6YXR73FlBIPhyy-163" value="id" style="text;html=1;strokeColor=none;fillColor=none;align=left;verticalAlign=middle;spacingLeft=4;spacingRight=4;overflow=hidden;rotatable=0;points=[[0,0.5],[1,0.5]];portConstraint=eastwest;whiteSpace=wrap;" vertex="1" parent="e-Bmt-6YXR73FlBIPhyy-162">
          <mxGeometry y="29" width="140" height="26" as="geometry" />
        </mxCell>
        <mxCell id="e-Bmt-6YXR73FlBIPhyy-164" value="userId" style="text;html=1;strokeColor=none;fillColor=none;align=left;verticalAlign=middle;spacingLeft=4;spacingRight=4;overflow=hidden;rotatable=0;points=[[0,0.5],[1,0.5]];portConstraint=eastwest;whiteSpace=wrap;" vertex="1" parent="e-Bmt-6YXR73FlBIPhyy-162">
          <mxGeometry y="55" width="140" height="26" as="geometry" />
        </mxCell>
        <mxCell id="e-Bmt-6YXR73FlBIPhyy-165" value="productId" style="text;html=1;strokeColor=none;fillColor=none;align=left;verticalAlign=middle;spacingLeft=4;spacingRight=4;overflow=hidden;rotatable=0;points=[[0,0.5],[1,0.5]];portConstraint=eastwest;whiteSpace=wrap;" vertex="1" parent="e-Bmt-6YXR73FlBIPhyy-162">
          <mxGeometry y="81" width="140" height="26" as="geometry" />
        </mxCell>
        <mxCell id="e-Bmt-6YXR73FlBIPhyy-166" value="quantity" style="text;html=1;strokeColor=none;fillColor=none;align=left;verticalAlign=middle;spacingLeft=4;spacingRight=4;overflow=hidden;rotatable=0;points=[[0,0.5],[1,0.5]];portConstraint=eastwest;whiteSpace=wrap;" vertex="1" parent="e-Bmt-6YXR73FlBIPhyy-162">
          <mxGeometry y="107" width="140" height="26" as="geometry" />
        </mxCell>
        <mxCell id="e-Bmt-6YXR73FlBIPhyy-167" value="createdAt" style="text;html=1;strokeColor=none;fillColor=none;align=left;verticalAlign=middle;spacingLeft=4;spacingRight=4;overflow=hidden;rotatable=0;points=[[0,0.5],[1,0.5]];portConstraint=eastwest;whiteSpace=wrap;" vertex="1" parent="e-Bmt-6YXR73FlBIPhyy-162">
          <mxGeometry y="133" width="140" height="26" as="geometry" />
        </mxCell>
        <mxCell id="e-Bmt-6YXR73FlBIPhyy-168" style="edgeStyle=orthogonalEdgeStyle;rounded=0;orthogonalLoop=1;jettySize=auto;html=1;entryX=0;entryY=0.5;entryDx=0;entryDy=0;" edge="1" parent="1" source="e-Bmt-6YXR73FlBIPhyy-165" target="e-Bmt-6YXR73FlBIPhyy-115">
          <mxGeometry relative="1" as="geometry" />
        </mxCell>
        <mxCell id="e-Bmt-6YXR73FlBIPhyy-169" style="edgeStyle=orthogonalEdgeStyle;rounded=0;orthogonalLoop=1;jettySize=auto;html=1;entryX=1;entryY=0.5;entryDx=0;entryDy=0;" edge="1" parent="1" source="e-Bmt-6YXR73FlBIPhyy-164" target="e-Bmt-6YXR73FlBIPhyy-61">
          <mxGeometry relative="1" as="geometry" />
        </mxCell>
        <mxCell id="e-Bmt-6YXR73FlBIPhyy-170" value="WISH_LIST" style="swimlane;fontStyle=1;align=center;verticalAlign=middle;childLayout=stackLayout;horizontal=1;startSize=29;horizontalStack=0;resizeParent=1;resizeParentMax=0;resizeLast=0;collapsible=0;marginBottom=0;html=1;whiteSpace=wrap;" vertex="1" parent="1">
          <mxGeometry x="1930" y="130" width="140" height="133" as="geometry" />
        </mxCell>
        <mxCell id="e-Bmt-6YXR73FlBIPhyy-171" value="id" style="text;html=1;strokeColor=none;fillColor=none;align=left;verticalAlign=middle;spacingLeft=4;spacingRight=4;overflow=hidden;rotatable=0;points=[[0,0.5],[1,0.5]];portConstraint=eastwest;whiteSpace=wrap;" vertex="1" parent="e-Bmt-6YXR73FlBIPhyy-170">
          <mxGeometry y="29" width="140" height="26" as="geometry" />
        </mxCell>
        <mxCell id="e-Bmt-6YXR73FlBIPhyy-172" value="userId" style="text;html=1;strokeColor=none;fillColor=none;align=left;verticalAlign=middle;spacingLeft=4;spacingRight=4;overflow=hidden;rotatable=0;points=[[0,0.5],[1,0.5]];portConstraint=eastwest;whiteSpace=wrap;" vertex="1" parent="e-Bmt-6YXR73FlBIPhyy-170">
          <mxGeometry y="55" width="140" height="26" as="geometry" />
        </mxCell>
        <mxCell id="e-Bmt-6YXR73FlBIPhyy-173" value="productId" style="text;html=1;strokeColor=none;fillColor=none;align=left;verticalAlign=middle;spacingLeft=4;spacingRight=4;overflow=hidden;rotatable=0;points=[[0,0.5],[1,0.5]];portConstraint=eastwest;whiteSpace=wrap;" vertex="1" parent="e-Bmt-6YXR73FlBIPhyy-170">
          <mxGeometry y="81" width="140" height="26" as="geometry" />
        </mxCell>
        <mxCell id="e-Bmt-6YXR73FlBIPhyy-174" value="createdAt" style="text;html=1;strokeColor=none;fillColor=none;align=left;verticalAlign=middle;spacingLeft=4;spacingRight=4;overflow=hidden;rotatable=0;points=[[0,0.5],[1,0.5]];portConstraint=eastwest;whiteSpace=wrap;" vertex="1" parent="e-Bmt-6YXR73FlBIPhyy-170">
          <mxGeometry y="107" width="140" height="26" as="geometry" />
        </mxCell>
        <mxCell id="e-Bmt-6YXR73FlBIPhyy-175" style="edgeStyle=orthogonalEdgeStyle;rounded=0;orthogonalLoop=1;jettySize=auto;html=1;entryX=0;entryY=0.5;entryDx=0;entryDy=0;" edge="1" parent="1" source="e-Bmt-6YXR73FlBIPhyy-173" target="e-Bmt-6YXR73FlBIPhyy-156">
          <mxGeometry relative="1" as="geometry" />
        </mxCell>
        <mxCell id="e-Bmt-6YXR73FlBIPhyy-176" style="edgeStyle=orthogonalEdgeStyle;rounded=0;orthogonalLoop=1;jettySize=auto;html=1;entryX=1;entryY=0.5;entryDx=0;entryDy=0;" edge="1" parent="1" source="e-Bmt-6YXR73FlBIPhyy-172" target="e-Bmt-6YXR73FlBIPhyy-61">
          <mxGeometry relative="1" as="geometry" />
        </mxCell>
        <mxCell id="e-Bmt-6YXR73FlBIPhyy-177" value="SESSION" style="swimlane;fontStyle=1;align=center;verticalAlign=middle;childLayout=stackLayout;horizontal=1;startSize=29;horizontalStack=0;resizeParent=1;resizeParentMax=0;resizeLast=0;collapsible=0;marginBottom=0;html=1;whiteSpace=wrap;" vertex="1" parent="1">
          <mxGeometry x="1740" y="-107" width="140" height="107" as="geometry" />
        </mxCell>
        <mxCell id="e-Bmt-6YXR73FlBIPhyy-178" value="id" style="text;html=1;strokeColor=none;fillColor=none;align=left;verticalAlign=middle;spacingLeft=4;spacingRight=4;overflow=hidden;rotatable=0;points=[[0,0.5],[1,0.5]];portConstraint=eastwest;whiteSpace=wrap;" vertex="1" parent="e-Bmt-6YXR73FlBIPhyy-177">
          <mxGeometry y="29" width="140" height="26" as="geometry" />
        </mxCell>
        <mxCell id="e-Bmt-6YXR73FlBIPhyy-179" value="session_id" style="text;html=1;strokeColor=none;fillColor=none;align=left;verticalAlign=middle;spacingLeft=4;spacingRight=4;overflow=hidden;rotatable=0;points=[[0,0.5],[1,0.5]];portConstraint=eastwest;whiteSpace=wrap;" vertex="1" parent="e-Bmt-6YXR73FlBIPhyy-177">
          <mxGeometry y="55" width="140" height="26" as="geometry" />
        </mxCell>
        <mxCell id="e-Bmt-6YXR73FlBIPhyy-180" value="createdAt" style="text;html=1;strokeColor=none;fillColor=none;align=left;verticalAlign=middle;spacingLeft=4;spacingRight=4;overflow=hidden;rotatable=0;points=[[0,0.5],[1,0.5]];portConstraint=eastwest;whiteSpace=wrap;" vertex="1" parent="e-Bmt-6YXR73FlBIPhyy-177">
          <mxGeometry y="81" width="140" height="26" as="geometry" />
        </mxCell>
        <mxCell id="e-Bmt-6YXR73FlBIPhyy-181" style="edgeStyle=orthogonalEdgeStyle;rounded=0;orthogonalLoop=1;jettySize=auto;html=1;entryX=0;entryY=0.5;entryDx=0;entryDy=0;" edge="1" parent="1" source="e-Bmt-6YXR73FlBIPhyy-178" target="e-Bmt-6YXR73FlBIPhyy-61">
          <mxGeometry relative="1" as="geometry" />
        </mxCell>
        <mxCell id="e-Bmt-6YXR73FlBIPhyy-182" value="CONTACT" style="swimlane;fontStyle=1;align=center;verticalAlign=middle;childLayout=stackLayout;horizontal=1;startSize=29;horizontalStack=0;resizeParent=1;resizeParentMax=0;resizeLast=0;collapsible=0;marginBottom=0;html=1;whiteSpace=wrap;" vertex="1" parent="1">
          <mxGeometry x="2360" y="-280" width="120" height="81" as="geometry" />
        </mxCell>
        <mxCell id="e-Bmt-6YXR73FlBIPhyy-183" value="id" style="text;html=1;strokeColor=none;fillColor=none;align=left;verticalAlign=middle;spacingLeft=4;spacingRight=4;overflow=hidden;rotatable=0;points=[[0,0.5],[1,0.5]];portConstraint=eastwest;whiteSpace=wrap;" vertex="1" parent="e-Bmt-6YXR73FlBIPhyy-182">
          <mxGeometry y="29" width="120" height="26" as="geometry" />
        </mxCell>
        <mxCell id="e-Bmt-6YXR73FlBIPhyy-184" value="name" style="text;html=1;strokeColor=none;fillColor=none;align=left;verticalAlign=middle;spacingLeft=4;spacingRight=4;overflow=hidden;rotatable=0;points=[[0,0.5],[1,0.5]];portConstraint=eastwest;whiteSpace=wrap;" vertex="1" parent="e-Bmt-6YXR73FlBIPhyy-182">
          <mxGeometry y="55" width="120" height="26" as="geometry" />
        </mxCell>
        <mxCell id="e-Bmt-6YXR73FlBIPhyy-185" value="INFO" style="swimlane;fontStyle=1;align=center;verticalAlign=middle;childLayout=stackLayout;horizontal=1;startSize=29;horizontalStack=0;resizeParent=1;resizeParentMax=0;resizeLast=0;collapsible=0;marginBottom=0;html=1;whiteSpace=wrap;" vertex="1" parent="1">
          <mxGeometry x="2360" y="-160" width="120" height="107" as="geometry" />
        </mxCell>
        <mxCell id="e-Bmt-6YXR73FlBIPhyy-186" value="id" style="text;html=1;strokeColor=none;fillColor=none;align=left;verticalAlign=middle;spacingLeft=4;spacingRight=4;overflow=hidden;rotatable=0;points=[[0,0.5],[1,0.5]];portConstraint=eastwest;whiteSpace=wrap;" vertex="1" parent="e-Bmt-6YXR73FlBIPhyy-185">
          <mxGeometry y="29" width="120" height="26" as="geometry" />
        </mxCell>
        <mxCell id="e-Bmt-6YXR73FlBIPhyy-187" value="key" style="text;html=1;strokeColor=none;fillColor=none;align=left;verticalAlign=middle;spacingLeft=4;spacingRight=4;overflow=hidden;rotatable=0;points=[[0,0.5],[1,0.5]];portConstraint=eastwest;whiteSpace=wrap;" vertex="1" parent="e-Bmt-6YXR73FlBIPhyy-185">
          <mxGeometry y="55" width="120" height="26" as="geometry" />
        </mxCell>
        <mxCell id="e-Bmt-6YXR73FlBIPhyy-188" value="value" style="text;html=1;strokeColor=none;fillColor=none;align=left;verticalAlign=middle;spacingLeft=4;spacingRight=4;overflow=hidden;rotatable=0;points=[[0,0.5],[1,0.5]];portConstraint=eastwest;whiteSpace=wrap;" vertex="1" parent="e-Bmt-6YXR73FlBIPhyy-185">
          <mxGeometry y="81" width="120" height="26" as="geometry" />
        </mxCell>
        <mxCell id="e-Bmt-6YXR73FlBIPhyy-189" value="BLOCK" style="swimlane;fontStyle=1;align=center;verticalAlign=middle;childLayout=stackLayout;horizontal=1;startSize=29;horizontalStack=0;resizeParent=1;resizeParentMax=0;resizeLast=0;collapsible=0;marginBottom=0;html=1;whiteSpace=wrap;" vertex="1" parent="1">
          <mxGeometry x="1560" y="-410" width="140" height="107" as="geometry" />
        </mxCell>
        <mxCell id="e-Bmt-6YXR73FlBIPhyy-190" value="id" style="text;html=1;strokeColor=none;fillColor=none;align=left;verticalAlign=middle;spacingLeft=4;spacingRight=4;overflow=hidden;rotatable=0;points=[[0,0.5],[1,0.5]];portConstraint=eastwest;whiteSpace=wrap;" vertex="1" parent="e-Bmt-6YXR73FlBIPhyy-189">
          <mxGeometry y="29" width="140" height="26" as="geometry" />
        </mxCell>
        <mxCell id="e-Bmt-6YXR73FlBIPhyy-191" value="reason" style="text;html=1;strokeColor=none;fillColor=none;align=left;verticalAlign=middle;spacingLeft=4;spacingRight=4;overflow=hidden;rotatable=0;points=[[0,0.5],[1,0.5]];portConstraint=eastwest;whiteSpace=wrap;" vertex="1" parent="e-Bmt-6YXR73FlBIPhyy-189">
          <mxGeometry y="55" width="140" height="26" as="geometry" />
        </mxCell>
        <mxCell id="e-Bmt-6YXR73FlBIPhyy-192" value="userId" style="text;html=1;strokeColor=none;fillColor=none;align=left;verticalAlign=middle;spacingLeft=4;spacingRight=4;overflow=hidden;rotatable=0;points=[[0,0.5],[1,0.5]];portConstraint=eastwest;whiteSpace=wrap;" vertex="1" parent="e-Bmt-6YXR73FlBIPhyy-189">
          <mxGeometry y="81" width="140" height="26" as="geometry" />
        </mxCell>
        <mxCell id="e-Bmt-6YXR73FlBIPhyy-193" style="edgeStyle=orthogonalEdgeStyle;rounded=0;orthogonalLoop=1;jettySize=auto;html=1;entryX=0;entryY=0.5;entryDx=0;entryDy=0;" edge="1" parent="1" source="e-Bmt-6YXR73FlBIPhyy-192" target="e-Bmt-6YXR73FlBIPhyy-61">
          <mxGeometry relative="1" as="geometry" />
        </mxCell>
      </root>
    </mxGraphModel>
  </diagram>
</mxfile>
